# xmcd CD database file
#
# Track frame offsets:
#	150
#	33486
#	55902
#	143093
#	165719
#	191396
#
# Disc length: 2959 seconds
#
# Revision: 17
# Processed by: cddbd v1.5.2PL0 Copyright (c) Steve Scherf et al.
# Submitted via: CDex 1.51
#
DISCID=4b0b8d06
DTITLE=Sonny Simmons Trio - Live in Paris Disc 2
DYEAR=2002
DGENRE=Jazz
TTITLE0=Lady L
TTITLE1=Salt Peanuts
TTITLE2=Ghost from the Golden Era
TTITLE3=Voodoo Hoodoo Funk
TTITLE4='Round Midnight
TTITLE5=Hip Hop Le Funk
EXTD=YEAR: 2002
EXTT0=
EXTT1=
EXTT2=
EXTT3=
EXTT4=
EXTT5=
PLAYORDER=
